<svg width="164" height="103" viewBox="0 0 164 103" fill="none" xmlns="http://www.w3.org/2000/svg">
<path d="M43.6225 45.3531C43.6225 53.9245 50.5619 60.8712 59.1243 60.8712C67.6867 60.8712 74.6261 53.9245 74.6261 45.3531C74.6261 36.7816 67.6867 29.8349 59.1243 29.8349C50.5619 29.8349 43.6225 36.7816 43.6225 45.3531Z" fill="url(#paint0_linear_83_7)"/>
<path d="M141.232 50.8625C148.351 50.8625 154.122 45.0852 154.122 37.9585C154.122 30.8318 148.351 25.0545 141.232 25.0545C134.113 25.0545 128.341 30.8318 128.341 37.9585C128.341 45.0852 134.113 50.8625 141.232 50.8625Z" fill="url(#paint1_linear_83_7)"/>
<path d="M186.145 59.7985C181.536 58.6528 177.864 55.1639 176.48 50.6126C175.096 46.0613 176.189 41.1142 179.383 37.5836C181.526 35.209 182.702 32.147 182.702 28.9497C182.702 21.8363 176.917 16.0457 169.811 16.0457C162.705 16.0457 156.921 21.8363 156.921 28.9497C156.921 34.4383 160.406 39.3437 165.608 41.1455C170.092 42.7077 173.432 46.5091 174.41 51.1541C175.388 55.8096 173.848 60.6316 170.363 63.8603C166.815 67.1513 164.859 71.6297 164.859 76.4518C164.859 85.9189 172.558 93.6155 182.005 93.6155C191.451 93.6155 199.15 85.9085 199.15 76.4518C199.15 68.5469 193.803 61.694 186.145 59.788V59.7985Z" fill="url(#paint2_linear_83_7)"/>
<path d="M150.127 16.254C154.278 16.254 157.639 12.89 157.639 8.73444C157.639 4.57891 154.278 1.21492 150.127 1.21492C145.976 1.21492 142.616 4.57891 142.616 8.73444C142.616 12.89 145.976 16.254 150.127 16.254Z" fill="url(#paint3_linear_83_7)"/>
<path d="M50.5931 24.7629C54.8279 24.7629 58.2608 21.3263 58.2608 17.0872C58.2608 12.848 54.8279 9.41141 50.5931 9.41141C46.3584 9.41141 42.9255 12.848 42.9255 17.0872C42.9255 21.3263 46.3584 24.7629 50.5931 24.7629Z" fill="url(#paint4_linear_83_7)"/>
<path d="M159.751 64.131C163.985 64.131 167.418 60.6941 167.418 56.4553C167.418 52.2164 163.985 48.7795 159.751 48.7795C155.516 48.7795 152.083 52.2164 152.083 56.4553C152.083 60.6941 155.516 64.131 159.751 64.131Z" fill="url(#paint5_linear_83_7)"/>
<path d="M96.4353 91.8227C102.556 89.2848 105.463 82.2603 102.927 76.1331C100.392 70.0059 93.375 67.0963 87.2542 69.6342C81.1335 72.1722 78.2269 79.1967 80.7622 85.3238C83.2975 91.451 90.3146 94.3607 96.4353 91.8227Z" fill="url(#paint6_linear_83_7)"/>
<path d="M155.922 86.4501C155.527 86.4501 155.131 86.4709 154.736 86.5126C154.518 86.5334 154.299 86.5438 154.081 86.5438C152.083 86.5438 150.2 85.5856 149.014 83.9505C147.703 82.1279 147.474 79.7429 148.4 77.7016C149.139 76.0769 149.513 74.348 149.513 72.5462C149.513 65.6724 143.926 60.0692 137.049 60.0692C130.172 60.0692 124.586 65.662 124.586 72.5462C124.586 79.4305 130.172 85.0232 137.049 85.0232C137.663 85.0232 138.288 84.9816 138.881 84.8878C139.182 84.8462 139.494 84.8254 139.796 84.8254C141.69 84.8254 143.51 85.6898 144.707 87.2104C146.09 88.9705 146.423 91.345 145.581 93.428C145.04 94.7507 144.769 96.1567 144.769 97.6044C144.769 103.76 149.773 108.759 155.912 108.759C162.05 108.759 167.054 103.749 167.054 97.6044C167.054 91.4596 162.05 86.4501 155.912 86.4501H155.922Z" fill="url(#paint7_linear_83_7)"/>
<path d="M149.399 129.891C148.941 125.391 146.996 121.34 143.812 118.195C143.781 118.163 143.76 118.143 143.729 118.111C143.396 117.778 143.042 117.466 142.678 117.153C142.532 117.028 142.397 116.903 142.251 116.789C141.908 116.518 141.554 116.247 141.19 115.997C140.93 115.81 140.66 115.643 140.389 115.466C140.306 115.414 140.223 115.351 140.139 115.299C119.061 102.291 111.383 75.7333 122.255 53.4871C122.297 53.3934 122.338 53.3101 122.38 53.2164C122.484 52.9872 122.588 52.7581 122.692 52.529C122.692 52.5082 122.713 52.4873 122.723 52.4665C122.775 52.3415 122.827 52.2165 122.879 52.0916C122.921 51.9874 122.963 51.8937 122.994 51.7895C123.368 50.8105 123.66 49.8107 123.868 48.7901C123.868 48.7796 123.868 48.7588 123.868 48.7484C124.086 47.6444 124.211 46.5092 124.232 45.3323C124.232 45.1865 124.242 45.0407 124.242 44.9053V44.8845C124.242 44.8637 124.242 44.8532 124.242 44.8324C124.242 44.1971 124.211 43.5826 124.149 42.9577C124.149 42.9265 124.149 42.8848 124.149 42.8536C124.086 42.2495 123.993 41.6559 123.878 41.0727C123.868 41.0102 123.857 40.9373 123.837 40.8748C123.722 40.3124 123.576 39.7604 123.41 39.2188C123.389 39.1355 123.358 39.0626 123.337 38.9793C123.171 38.4481 122.973 37.9274 122.765 37.417C122.734 37.3337 122.692 37.2504 122.661 37.1671C122.442 36.6567 122.203 36.1673 121.943 35.6882C121.901 35.6153 121.86 35.5319 121.818 35.459C121.548 34.98 121.267 34.5009 120.965 34.0426C120.923 33.9801 120.882 33.9176 120.84 33.8552C120.518 33.3865 120.185 32.9386 119.831 32.5012C119.8 32.4596 119.758 32.4179 119.727 32.3762C119.352 31.9284 118.957 31.491 118.541 31.0744C118.541 31.0744 118.52 31.064 118.52 31.0536C118.104 30.637 117.667 30.2412 117.22 29.8663C117.188 29.835 117.157 29.8142 117.126 29.7829C116.689 29.4184 116.231 29.0852 115.763 28.7623C115.711 28.7206 115.649 28.679 115.597 28.6477C115.139 28.3353 114.66 28.0541 114.171 27.7833C114.098 27.7416 114.026 27.7 113.953 27.6583C113.474 27.3979 112.975 27.1584 112.465 26.9397C112.382 26.9084 112.299 26.8668 112.215 26.8355C111.706 26.6272 111.185 26.4294 110.655 26.2627C110.572 26.2315 110.488 26.2107 110.405 26.1898C109.864 26.0232 109.313 25.8774 108.761 25.7628C108.688 25.7524 108.616 25.7316 108.543 25.7212C107.971 25.6066 107.388 25.5129 106.795 25.4504C106.743 25.4504 106.701 25.4504 106.649 25.4399C106.025 25.3775 105.401 25.3462 104.756 25.3462C104.392 25.3462 104.038 25.3462 103.684 25.3775C103.643 25.3775 103.382 25.3775 103.341 25.3775C99.7723 25.3775 96.5471 22.2634 97.1817 17.9933C97.2962 17.2435 97.6187 16.5353 98.0037 15.8895C98.0765 15.7646 98.1389 15.6396 98.2117 15.5146C98.3262 15.3167 98.4406 15.1084 98.5551 14.9105C98.6799 14.671 98.7944 14.4315 98.9088 14.1919C99.0024 14.0044 99.0961 13.817 99.1793 13.6295C99.3145 13.3275 99.429 13.015 99.5434 12.7026C99.5955 12.5776 99.6475 12.4526 99.6995 12.3172C100.501 10.0572 102.55 8.44291 104.912 8.19296C105.13 8.17213 105.359 8.16171 105.578 8.16171C107.731 8.16171 109.77 9.30734 110.904 11.1508C113.412 15.2438 117.75 17.6913 122.526 17.6913C130.027 17.6913 136.134 11.5778 136.134 4.06868C136.134 -3.44043 130.027 -9.55395 122.526 -9.55395C117.355 -9.55395 112.684 -6.66904 110.353 -2.0136C109.292 0.111032 107.138 1.43372 104.756 1.43372C104.725 1.43372 104.683 1.43372 104.652 1.43372C102.259 1.38164 100.074 -0.0556059 99.0961 -2.23231C98.9088 -2.6489 98.7007 -3.05508 98.4926 -3.45085C98.4822 -3.48209 98.4614 -3.51334 98.451 -3.53417C98.1805 -4.02367 97.8892 -4.49233 97.5875 -4.95059C97.4939 -5.09639 97.3794 -5.2422 97.2858 -5.38801C97.0569 -5.71087 96.8176 -6.03373 96.5783 -6.34618C96.4639 -6.49199 96.3494 -6.63779 96.2246 -6.7836C95.9125 -7.14812 95.59 -7.51264 95.257 -7.85633C95.1322 -7.98131 95.0073 -8.10629 94.8825 -8.22085C94.5704 -8.52288 94.2583 -8.80408 93.9357 -9.08528C93.7485 -9.24151 93.5612 -9.39773 93.3635 -9.54354C93.1242 -9.731 92.885 -9.90806 92.6353 -10.0851C92.4168 -10.2413 92.2087 -10.3976 91.9798 -10.5434C91.7093 -10.7204 91.418 -10.8871 91.1371 -11.0537C90.7626 -11.2724 90.3776 -11.4807 89.9927 -11.6682C89.7534 -11.7827 89.5141 -11.9077 89.2748 -12.0119C89.0043 -12.1368 88.7338 -12.241 88.4633 -12.3555C88.2032 -12.4597 87.9327 -12.5534 87.6726 -12.6472C87.4229 -12.7305 87.1732 -12.8242 86.9131 -12.9075C86.4241 -13.0533 85.9248 -13.1783 85.4254 -13.2929C85.2277 -13.3345 85.0196 -13.3658 84.8219 -13.4074C84.4266 -13.4804 84.0416 -13.5428 83.6463 -13.5845C83.459 -13.6053 83.2718 -13.6262 83.0741 -13.647C82.4915 -13.6991 81.9088 -13.7407 81.3158 -13.7407C80.6812 -13.7407 80.0466 -13.7095 79.4327 -13.647C79.3807 -13.647 79.3287 -13.647 79.2871 -13.6366C78.694 -13.5741 78.1114 -13.4804 77.5392 -13.3658C77.4664 -13.3554 77.3936 -13.3345 77.3103 -13.3241C76.7485 -13.2096 76.2075 -13.0638 75.6665 -12.8971C75.5833 -12.8763 75.5001 -12.845 75.4168 -12.8242C74.8862 -12.6576 74.366 -12.4597 73.8562 -12.2514C73.773 -12.2202 73.6898 -12.1785 73.6065 -12.1473C73.0968 -11.9285 72.6078 -11.689 72.1188 -11.4286C72.046 -11.387 71.9731 -11.3453 71.9003 -11.3036C71.4113 -11.0329 70.9327 -10.7412 70.475 -10.4392C70.423 -10.3976 70.3709 -10.3663 70.3085 -10.3247C69.8403 -10.0018 69.3722 -9.6581 68.9352 -9.29358C68.904 -9.27275 68.8832 -9.25192 68.8624 -9.23109C68.415 -8.85616 67.978 -8.46039 67.5619 -8.05421C67.5411 -8.0438 67.5307 -8.02297 67.5099 -8.01255C67.1041 -7.60637 66.7088 -7.16895 66.3446 -6.72111C66.303 -6.67945 66.2614 -6.62738 66.2302 -6.58572C65.8764 -6.15871 65.5435 -5.70046 65.2314 -5.2422C65.1898 -5.17971 65.1378 -5.10681 65.0962 -5.04432C64.7944 -4.58607 64.5031 -4.1174 64.243 -3.63831C64.2014 -3.555 64.1598 -3.48209 64.1182 -3.39877C63.8581 -2.91969 63.6188 -2.41978 63.4003 -1.91986C63.3691 -1.83655 63.3275 -1.75323 63.2963 -1.66991C63.0882 -1.15958 62.8905 -0.638838 62.7241 -0.0972662C62.7033 -0.0243616 62.6825 0.0589581 62.6513 0.131863C62.4848 0.683849 62.3391 1.23584 62.2247 1.80865C62.2143 1.87114 62.2039 1.92322 62.1935 1.98571C62.079 2.57935 61.975 3.18341 61.9126 3.79789C61.9126 3.81872 61.9126 3.82914 61.9126 3.84997C61.8502 4.46444 61.8189 5.08933 61.8189 5.71422C61.8189 5.74547 61.8189 5.77671 61.8189 5.80796C61.8189 5.81837 61.8189 5.82879 61.8189 5.8392C61.8189 6.44326 61.8502 7.05774 61.9126 7.67222C61.9126 7.7347 61.9126 7.79719 61.9334 7.8701C61.9334 7.943 61.9438 8.02632 61.9542 8.09923C62.0062 8.52623 62.0894 8.95324 62.1623 9.36984C62.1831 9.50523 62.2039 9.65104 62.2351 9.78643C62.3599 10.3905 62.516 10.9841 62.6929 11.557C62.6929 11.5778 62.6929 11.5882 62.7033 11.609C63.057 12.7442 63.5148 13.8378 64.0662 14.8689C64.1078 14.9522 64.1494 15.0355 64.191 15.1188C64.191 15.1293 64.2014 15.1397 64.2118 15.1501C66.7816 19.8472 71.2345 23.3674 76.5508 24.7109C76.6549 24.7422 76.7589 24.763 76.863 24.7942C77.2999 24.8984 77.7369 24.9817 78.1739 25.0546C78.3923 25.0963 78.6212 25.1275 78.8397 25.1588C79.1934 25.2004 79.5472 25.2421 79.9113 25.2629C80.2234 25.2837 80.5459 25.3046 80.8581 25.315C81.0141 25.315 81.1702 25.3358 81.3366 25.3358C81.5343 25.3358 81.7216 25.315 81.9088 25.315C82.0337 25.315 82.1481 25.315 82.273 25.315C82.3146 25.315 82.3666 25.315 82.4082 25.315C82.4499 25.315 82.71 25.315 82.7516 25.315C86.3201 25.315 89.5453 28.429 88.9107 32.6991C88.7962 33.449 88.4737 34.1572 88.0888 34.8029C87.9847 34.9695 87.9015 35.1466 87.7974 35.3132C87.7142 35.459 87.631 35.6049 87.5582 35.7507C87.2981 36.2297 87.0692 36.7192 86.8507 37.2192C86.8091 37.3233 86.7675 37.4379 86.7259 37.542C86.5594 37.9586 86.4033 38.3856 86.2577 38.8126C86.2057 38.9793 86.1432 39.1563 86.0912 39.323C85.9456 39.802 85.8207 40.2915 85.7167 40.7915C85.7167 40.8227 85.6959 40.8435 85.6959 40.8748C85.6959 40.906 85.6855 40.9268 85.6751 40.9581C83.5839 50.7585 77.5496 59.2674 68.9872 64.4748C63.2339 67.9742 56.6794 69.7864 50.0625 69.7864C46.8165 69.7864 43.5601 69.349 40.3661 68.4741C39.6587 68.2762 38.9304 68.1304 38.1813 68.0159C33.7701 66.9744 30.2535 63.6104 29.0259 59.2153C27.7566 54.6432 29.1819 49.7482 32.6985 46.5717C36.7872 42.8848 39.1385 37.5941 39.1385 32.0638C39.1385 21.2948 30.3888 12.5255 19.6208 12.5255C8.85275 12.5255 0.0614624 21.2844 0.0614624 32.0638C0.0614624 41.4163 6.71995 49.4878 15.8858 51.248C20.5363 52.1436 24.2817 55.6014 25.551 60.1735C26.8203 64.7456 25.3949 69.6406 21.8784 72.8171C17.7897 76.504 15.4384 81.7947 15.4384 87.325C15.4384 98.094 24.1881 106.863 34.9561 106.863C34.9873 106.863 35.0081 106.863 35.0393 106.863C35.0705 106.863 35.0914 106.863 35.1226 106.863C36.3814 106.863 37.6091 106.717 38.8263 106.478C38.9096 106.457 38.9824 106.436 39.0656 106.426C39.565 106.322 40.0644 106.186 40.5534 106.04C40.7303 105.988 40.8967 105.926 41.0736 105.874C41.4481 105.749 41.8227 105.613 42.1868 105.468C42.4157 105.374 42.6342 105.291 42.8527 105.186C43.1648 105.051 43.4665 104.895 43.7682 104.739C43.9971 104.624 44.2364 104.51 44.4653 104.374C44.8086 104.176 45.1519 103.968 45.4848 103.749C45.6305 103.655 45.7865 103.562 45.9322 103.468C50.0625 100.666 53.1629 96.3547 54.2241 91.3347C56.3049 81.5031 62.3495 72.9525 70.9327 67.7347C76.6861 64.2353 83.2405 62.4231 89.8574 62.4231C92.2399 62.4231 94.6224 62.6626 96.9841 63.1313C114.65 75.4937 121.735 97.8544 114.733 117.976C112.465 118.799 110.072 119.226 107.658 119.226C105.463 119.226 103.247 118.872 101.114 118.163C95.0177 116.143 90.2007 111.415 88.0575 105.364C86.2889 100.385 81.5655 97.0316 76.3012 97.0316C69.4346 97.0316 63.8373 102.624 63.8373 109.509C63.8373 116.393 69.4242 121.986 76.3012 121.986C78.1426 121.986 79.9217 121.59 81.5655 120.819C84.3746 119.496 87.4021 118.83 90.4296 118.83C93.6652 118.83 96.8904 119.58 99.8556 121.09C105.578 123.996 109.646 129.401 110.863 135.712C110.863 135.754 110.884 135.806 110.894 135.848C110.925 135.983 110.957 136.119 110.988 136.254C111.092 136.733 111.206 137.202 111.352 137.66C111.393 137.816 111.456 137.962 111.508 138.118C111.654 138.556 111.81 138.993 111.986 139.42C112.049 139.555 112.111 139.701 112.163 139.837C112.351 140.274 112.559 140.691 112.777 141.107C112.84 141.232 112.902 141.347 112.975 141.461C113.214 141.888 113.464 142.305 113.734 142.722C113.797 142.815 113.859 142.919 113.922 143.013C114.213 143.44 114.525 143.857 114.858 144.263C114.91 144.326 114.962 144.398 115.014 144.461C115.389 144.909 115.774 145.336 116.19 145.752C116.21 145.773 116.221 145.784 116.242 145.804C117.105 146.669 118.052 147.45 119.051 148.137C119.186 148.231 119.321 148.304 119.456 148.398C119.81 148.627 120.174 148.856 120.549 149.064C120.757 149.179 120.965 149.283 121.184 149.398C121.496 149.554 121.808 149.71 122.13 149.856C122.37 149.96 122.619 150.064 122.869 150.158C123.181 150.283 123.493 150.397 123.805 150.501C124.065 150.585 124.326 150.668 124.586 150.751C124.919 150.845 125.251 150.929 125.584 151.012C125.834 151.074 126.094 151.137 126.354 151.178C126.739 151.251 127.124 151.303 127.509 151.356C127.728 151.387 127.946 151.418 128.165 151.439C128.778 151.501 129.403 151.533 130.027 151.533C140.784 151.533 149.545 142.774 149.545 131.994C149.545 131.359 149.503 130.734 149.451 130.12C149.451 130.047 149.44 129.984 149.43 129.911L149.399 129.891Z" fill="url(#paint8_linear_83_7)"/>
<defs>
<linearGradient id="paint0_linear_83_7" x1="32.3693" y1="-0.500847" x2="171.051" y2="134.575" gradientUnits="userSpaceOnUse">
<stop stop-color="#5C1AAD"/>
<stop offset="1" stop-color="#DC0AC4"/>
</linearGradient>
<linearGradient id="paint1_linear_83_7" x1="32.3693" y1="-0.500847" x2="171.051" y2="134.575" gradientUnits="userSpaceOnUse">
<stop stop-color="#5C1AAD"/>
<stop offset="1" stop-color="#DC0AC4"/>
</linearGradient>
<linearGradient id="paint2_linear_83_7" x1="32.3693" y1="-0.500847" x2="171.051" y2="134.575" gradientUnits="userSpaceOnUse">
<stop stop-color="#5C1AAD"/>
<stop offset="1" stop-color="#DC0AC4"/>
</linearGradient>
<linearGradient id="paint3_linear_83_7" x1="32.3693" y1="-0.500847" x2="171.051" y2="134.575" gradientUnits="userSpaceOnUse">
<stop stop-color="#5C1AAD"/>
<stop offset="1" stop-color="#DC0AC4"/>
</linearGradient>
<linearGradient id="paint4_linear_83_7" x1="32.3693" y1="-0.500847" x2="171.051" y2="134.575" gradientUnits="userSpaceOnUse">
<stop stop-color="#5C1AAD"/>
<stop offset="1" stop-color="#DC0AC4"/>
</linearGradient>
<linearGradient id="paint5_linear_83_7" x1="32.3693" y1="-0.500847" x2="171.051" y2="134.575" gradientUnits="userSpaceOnUse">
<stop stop-color="#5C1AAD"/>
<stop offset="1" stop-color="#DC0AC4"/>
</linearGradient>
<linearGradient id="paint6_linear_83_7" x1="32.3693" y1="-0.500847" x2="171.051" y2="134.575" gradientUnits="userSpaceOnUse">
<stop stop-color="#5C1AAD"/>
<stop offset="1" stop-color="#DC0AC4"/>
</linearGradient>
<linearGradient id="paint7_linear_83_7" x1="32.3693" y1="-0.500847" x2="171.051" y2="134.575" gradientUnits="userSpaceOnUse">
<stop stop-color="#5C1AAD"/>
<stop offset="1" stop-color="#DC0AC4"/>
</linearGradient>
<linearGradient id="paint8_linear_83_7" x1="32.3693" y1="-0.500847" x2="171.051" y2="134.575" gradientUnits="userSpaceOnUse">
<stop stop-color="#5C1AAD"/>
<stop offset="1" stop-color="#DC0AC4"/>
</linearGradient>
</defs>
</svg>