<svg width="122" height="154" viewBox="0 0 122 154" fill="none" xmlns="http://www.w3.org/2000/svg">
<g opacity="0.6">
<mask id="path-1-inside-1_27_2192" fill="white">
<path d="M47.7558 62.8016C47.7558 71.8759 55.32 79.2302 64.6533 79.2302C73.9867 79.2302 81.5508 71.8759 81.5508 62.8016C81.5508 53.7273 73.9867 46.373 64.6533 46.373C55.32 46.373 47.7558 53.7273 47.7558 62.8016Z"/>
<path d="M154.153 68.6343C161.914 68.6343 168.205 62.518 168.205 54.9732C168.205 47.4284 161.914 41.3121 154.153 41.3121C146.393 41.3121 140.102 47.4284 140.102 54.9732C140.102 62.518 146.393 68.6343 154.153 68.6343Z"/>
<path d="M203.111 78.0945C198.087 76.8817 194.084 73.188 192.576 68.3697C191.067 63.5514 192.258 58.3141 195.74 54.5763C198.076 52.0624 199.357 48.8208 199.357 45.4358C199.357 37.9051 193.052 31.7747 185.306 31.7747C177.561 31.7747 171.255 37.9051 171.255 45.4358C171.255 51.2465 175.054 56.4397 180.725 58.3472C185.612 60.001 189.253 64.0255 190.319 68.9431C191.385 73.8716 189.706 78.9766 185.907 82.3947C182.04 85.8788 179.908 90.62 179.908 95.725C179.908 105.748 188.3 113.896 198.597 113.896C208.895 113.896 217.287 105.737 217.287 95.725C217.287 87.3563 211.458 80.1013 203.111 78.0835V78.0945Z"/>
<path d="M163.85 31.9952C168.375 31.9952 172.038 28.4339 172.038 24.0345C172.038 19.6352 168.375 16.0738 163.85 16.0738C159.325 16.0738 155.662 19.6352 155.662 24.0345C155.662 28.4339 159.325 31.9952 163.85 31.9952Z"/>
<path d="M55.354 41.0034C59.97 41.0034 63.7121 37.3652 63.7121 32.8773C63.7121 28.3894 59.97 24.7512 55.354 24.7512C50.738 24.7512 46.996 28.3894 46.996 32.8773C46.996 37.3652 50.738 41.0034 55.354 41.0034Z"/>
<path d="M174.34 82.6813C178.955 82.6813 182.698 79.0428 182.698 74.5552C182.698 70.0677 178.955 66.4291 174.34 66.4291C169.724 66.4291 165.982 70.0677 165.982 74.5552C165.982 79.0428 169.724 82.6813 174.34 82.6813Z"/>
<path d="M105.324 111.998C111.996 109.311 115.164 101.874 112.4 95.3875C109.637 88.9009 101.988 85.8205 95.316 88.5074C88.6441 91.1943 85.4759 98.6309 88.2394 105.118C91.003 111.604 98.6519 114.685 105.324 111.998Z"/>
<path d="M170.166 106.31C169.735 106.31 169.305 106.332 168.874 106.376C168.635 106.398 168.397 106.409 168.159 106.409C165.982 106.409 163.929 105.395 162.636 103.664C161.207 101.734 160.958 99.2092 161.967 97.0481C162.772 95.328 163.181 93.4977 163.181 91.5903C163.181 84.3132 157.091 78.3812 149.595 78.3812C142.098 78.3812 136.008 84.3021 136.008 91.5903C136.008 98.8784 142.098 104.799 149.595 104.799C150.264 104.799 150.944 104.755 151.59 104.656C151.919 104.612 152.26 104.59 152.588 104.59C154.652 104.59 156.637 105.505 157.941 107.115C159.45 108.978 159.812 111.492 158.894 113.697C158.304 115.097 158.009 116.586 158.009 118.119C158.009 124.635 163.464 129.927 170.155 129.927C176.846 129.927 182.301 124.624 182.301 118.119C182.301 111.613 176.846 106.31 170.155 106.31H170.166Z"/>
<path d="M163.056 152.299C162.557 147.536 160.436 143.247 156.966 139.917C156.932 139.884 156.909 139.862 156.875 139.829C156.512 139.476 156.127 139.145 155.73 138.814C155.571 138.682 155.424 138.55 155.265 138.428C154.891 138.142 154.505 137.855 154.108 137.59C153.825 137.392 153.53 137.216 153.235 137.028C153.144 136.973 153.053 136.907 152.963 136.852C129.987 123.08 121.617 94.9643 133.468 71.4129C133.514 71.3137 133.559 71.2255 133.604 71.1263C133.718 70.8837 133.831 70.6411 133.945 70.3986C133.945 70.3765 133.967 70.3545 133.979 70.3324C134.035 70.2001 134.092 70.0678 134.149 69.9355C134.194 69.8252 134.239 69.726 134.273 69.6157C134.682 68.5793 134.999 67.5208 135.226 66.4403C135.226 66.4292 135.226 66.4072 135.226 66.3962C135.464 65.2274 135.6 64.0256 135.623 62.7797C135.623 62.6253 135.634 62.4709 135.634 62.3276V62.3055C135.634 62.2835 135.634 62.2725 135.634 62.2504C135.634 61.5778 135.6 60.9273 135.532 60.2658C135.532 60.2327 135.532 60.1886 135.532 60.1555C135.464 59.516 135.362 58.8875 135.237 58.2701C135.226 58.2039 135.215 58.1267 135.192 58.0606C135.067 57.4652 134.908 56.8808 134.727 56.3075C134.704 56.2193 134.67 56.1421 134.648 56.0539C134.466 55.4915 134.251 54.9402 134.024 54.4C133.99 54.3118 133.945 54.2236 133.91 54.1354C133.672 53.5951 133.412 53.0769 133.128 52.5697C133.083 52.4925 133.037 52.4043 132.992 52.3271C132.697 51.8199 132.391 51.3127 132.062 50.8276C132.017 50.7614 131.971 50.6953 131.926 50.6291C131.574 50.1329 131.211 49.6588 130.826 49.1957C130.792 49.1516 130.746 49.1075 130.712 49.0634C130.304 48.5893 129.873 48.1262 129.42 47.6852C129.42 47.6852 129.397 47.6742 129.397 47.6632C128.943 47.2221 128.467 46.8031 127.979 46.4062C127.945 46.3731 127.911 46.3511 127.877 46.318C127.401 45.9321 126.902 45.5793 126.392 45.2374C126.335 45.1933 126.267 45.1492 126.21 45.1162C125.711 44.7854 125.19 44.4877 124.657 44.201C124.577 44.1569 124.498 44.1128 124.418 44.0687C123.897 43.7931 123.352 43.5395 122.797 43.3079C122.706 43.2748 122.615 43.2307 122.525 43.1977C121.969 42.9771 121.402 42.7676 120.823 42.5912C120.733 42.5582 120.642 42.5361 120.551 42.514C119.962 42.3376 119.36 42.1833 118.759 42.062C118.68 42.051 118.601 42.0289 118.521 42.0179C117.898 41.8966 117.262 41.7974 116.616 41.7312C116.559 41.7312 116.514 41.7312 116.457 41.7202C115.777 41.654 115.096 41.6209 114.393 41.6209C113.996 41.6209 113.611 41.621 113.225 41.654C113.18 41.654 112.896 41.654 112.851 41.654C108.961 41.654 105.446 38.3573 106.137 33.8367C106.262 33.0428 106.614 32.293 107.033 31.6094C107.113 31.4771 107.181 31.3448 107.26 31.2125C107.385 31.003 107.51 30.7825 107.634 30.573C107.77 30.3194 107.895 30.0658 108.02 29.8122C108.122 29.6137 108.224 29.4153 108.315 29.2168C108.462 28.8971 108.587 28.5663 108.712 28.2355C108.768 28.1032 108.825 27.9709 108.882 27.8275C109.755 25.4349 111.989 23.7259 114.563 23.4613C114.802 23.4392 115.051 23.4282 115.289 23.4282C117.637 23.4282 119.859 24.6411 121.096 26.5926C123.829 30.9258 128.558 33.5169 133.763 33.5169C141.94 33.5169 148.597 27.0447 148.597 19.095C148.597 11.1453 141.94 4.67314 133.763 4.67314C128.127 4.67314 123.035 7.72731 120.495 12.6559C119.338 14.9052 116.99 16.3055 114.393 16.3055C114.359 16.3055 114.314 16.3055 114.28 16.3055C111.672 16.2503 109.29 14.7288 108.224 12.4243C108.02 11.9833 107.793 11.5533 107.566 11.1343C107.555 11.1012 107.532 11.0682 107.521 11.0461C107.226 10.5279 106.908 10.0317 106.58 9.54659C106.478 9.39223 106.353 9.23786 106.251 9.0835C106.001 8.7417 105.74 8.39989 105.48 8.06912C105.355 7.91475 105.23 7.76039 105.094 7.60603C104.754 7.22012 104.402 6.83421 104.039 6.47036C103.903 6.33805 103.767 6.20574 103.631 6.08445C103.291 5.7647 102.951 5.467 102.599 5.1693C102.395 5.00391 102.191 4.83853 101.975 4.68416C101.714 4.4857 101.454 4.29826 101.181 4.11082C100.943 3.94543 100.716 3.78004 100.467 3.62568C100.172 3.43824 99.8546 3.26182 99.5484 3.08541C99.1402 2.85386 98.7206 2.63334 98.3009 2.43488C98.0401 2.31359 97.7793 2.18128 97.5184 2.07102C97.2236 1.93871 96.9287 1.82845 96.6339 1.70717C96.3504 1.59691 96.0555 1.49768 95.772 1.39844C95.4998 1.31024 95.2276 1.211 94.9441 1.1228C94.4111 0.968432 93.8668 0.836122 93.3224 0.714837C93.1069 0.670733 92.8801 0.637655 92.6647 0.593552C92.2337 0.51637 91.8141 0.450215 91.3832 0.406111C91.179 0.384059 90.9749 0.362008 90.7594 0.339956C90.1244 0.284826 89.4893 0.240723 88.8429 0.240723C88.1511 0.240723 87.4593 0.2738 86.7902 0.339956C86.7335 0.339956 86.6768 0.339956 86.6315 0.350982C85.985 0.417137 85.35 0.51637 84.7262 0.637655C84.6468 0.648681 84.5675 0.670733 84.4767 0.681759C83.8643 0.803044 83.2746 0.957407 82.6849 1.13382C82.5942 1.15587 82.5035 1.18895 82.4127 1.211C81.8344 1.38742 81.2673 1.59691 80.7116 1.81743C80.6209 1.8505 80.5302 1.89461 80.4395 1.92769C79.8838 2.15923 79.3508 2.41283 78.8178 2.68847C78.7384 2.73258 78.659 2.77668 78.5796 2.82078C78.0466 3.10746 77.5249 3.41618 77.0259 3.73594C76.9692 3.78004 76.9125 3.81312 76.8445 3.85722C76.3342 4.19902 75.8238 4.56288 75.3475 4.94878C75.3135 4.97084 75.2908 4.99289 75.2682 5.01494C74.7805 5.41187 74.3042 5.83086 73.8506 6.26087C73.8279 6.27189 73.8166 6.29395 73.7939 6.30497C73.3516 6.73498 72.9206 7.19807 72.5237 7.67218C72.4784 7.71629 72.433 7.77142 72.399 7.81552C72.0134 8.26758 71.6505 8.75272 71.3103 9.23786C71.2649 9.30402 71.2082 9.3812 71.1628 9.44736C70.834 9.9325 70.5164 10.4287 70.2329 10.9359C70.1876 11.0241 70.1422 11.1012 70.0968 11.1894C69.8133 11.6966 69.5525 12.2259 69.3143 12.7551C69.2803 12.8433 69.2349 12.9315 69.2009 13.0197C68.9741 13.56 68.7586 14.1113 68.5772 14.6847C68.5545 14.7618 68.5318 14.85 68.4978 14.9272C68.3164 15.5116 68.1576 16.096 68.0328 16.7024C68.0215 16.7686 68.0102 16.8237 67.9988 16.8898C67.8741 17.5183 67.7607 18.1578 67.6926 18.8083C67.6926 18.8304 67.6926 18.8414 67.6926 18.8635C67.6246 19.514 67.5906 20.1756 67.5906 20.8371C67.5906 20.8702 67.5906 20.9033 67.5906 20.9363C67.5906 20.9474 67.5906 20.9584 67.5906 20.9694C67.5906 21.6089 67.6246 22.2595 67.6926 22.91C67.6926 22.9761 67.6926 23.0423 67.7153 23.1195C67.7153 23.1967 67.7266 23.2849 67.738 23.3621C67.7947 23.8141 67.8854 24.2662 67.9648 24.7072C67.9875 24.8505 68.0102 25.0049 68.0442 25.1482C68.1803 25.7877 68.3504 26.4162 68.5432 27.0227C68.5432 27.0447 68.5432 27.0557 68.5545 27.0778C68.9401 28.2796 69.4391 29.4373 70.0401 30.5289C70.0855 30.6171 70.1309 30.7053 70.1762 30.7935C70.1762 30.8045 70.1876 30.8156 70.1989 30.8266C73 35.7993 77.8538 39.526 83.6489 40.9484C83.7623 40.9814 83.8757 41.0035 83.9891 41.0366C84.4654 41.1468 84.9417 41.235 85.418 41.3122C85.6562 41.3563 85.9057 41.3894 86.1438 41.4225C86.5294 41.4666 86.915 41.5107 87.3119 41.5327C87.6521 41.5548 88.0037 41.5768 88.3439 41.5879C88.514 41.5879 88.6841 41.6099 88.8656 41.6099C89.081 41.6099 89.2852 41.5879 89.4893 41.5879C89.6254 41.5879 89.7501 41.5879 89.8862 41.5879C89.9316 41.5879 89.9883 41.5879 90.0336 41.5879C90.079 41.5879 90.3625 41.5879 90.4079 41.5879C94.2977 41.5879 97.8133 44.8846 97.1215 49.4052C96.9968 50.1991 96.6452 50.9489 96.2256 51.6325C96.1122 51.8089 96.0215 51.9963 95.9081 52.1727C95.8174 52.3271 95.7266 52.4815 95.6472 52.6358C95.3637 53.143 95.1142 53.6612 94.8761 54.1905C94.8307 54.3007 94.7854 54.422 94.74 54.5323C94.5585 54.9733 94.3884 55.4254 94.2297 55.8774C94.173 56.0539 94.1049 56.2413 94.0482 56.4177C93.8895 56.9249 93.7534 57.4431 93.64 57.9724C93.64 58.0055 93.6173 58.0275 93.6173 58.0606C93.6173 58.0937 93.6059 58.1157 93.5946 58.1488C91.3151 68.5242 84.7376 77.5323 75.4042 83.0453C69.1329 86.75 61.9883 88.6685 54.7757 88.6685C51.2374 88.6685 47.6878 88.2054 44.2062 87.2792C43.435 87.0697 42.6412 86.9154 41.8247 86.7941C37.0162 85.6915 33.1831 82.1301 31.8449 77.4772C30.4614 72.6368 32.015 67.4546 35.8482 64.0917C40.305 60.1886 42.868 54.5874 42.868 48.7327C42.868 37.3319 33.3305 28.0481 21.593 28.0481C9.85546 28.0481 0.272644 37.3208 0.272644 48.7327C0.272644 58.6339 7.53064 67.179 17.5217 69.0424C22.591 69.9906 26.6736 73.6512 28.0572 78.4916C29.4407 83.3319 27.887 88.5141 24.0539 91.877C19.5971 95.7802 17.0341 101.381 17.0341 107.236C17.0341 118.637 26.5715 127.921 38.3091 127.921C38.3431 127.921 38.3658 127.921 38.3998 127.921C38.4338 127.921 38.4565 127.921 38.4905 127.921C39.8627 127.921 41.2009 127.766 42.5278 127.513C42.6185 127.491 42.6979 127.469 42.7886 127.458C43.333 127.347 43.8773 127.204 44.4103 127.05C44.6031 126.995 44.7846 126.928 44.9774 126.873C45.3856 126.741 45.7939 126.598 46.1908 126.443C46.4403 126.344 46.6785 126.256 46.9166 126.146C47.2568 126.002 47.5857 125.837 47.9146 125.671C48.1641 125.55 48.4249 125.429 48.6744 125.286C49.0486 125.076 49.4229 124.856 49.7858 124.624C49.9445 124.525 50.1147 124.425 50.2734 124.326C54.7757 121.36 58.1552 116.796 59.3119 111.481C61.58 101.073 68.1689 92.0204 77.5249 86.4964C83.7963 82.7917 90.9409 80.8732 98.1535 80.8732C100.751 80.8732 103.348 81.1268 105.922 81.6229C125.178 94.7107 132.901 118.383 125.269 139.685C122.797 140.556 120.188 141.008 117.557 141.008C115.164 141.008 112.749 140.634 110.424 139.884C103.778 137.745 98.5278 132.739 96.1916 126.333C94.2637 121.063 89.1151 117.512 83.3767 117.512C75.8919 117.512 69.7906 123.433 69.7906 130.721C69.7906 138.009 75.8805 143.93 83.3767 143.93C85.384 143.93 87.3232 143.511 89.115 142.695C92.177 141.295 95.4771 140.589 98.7773 140.589C102.304 140.589 105.82 141.383 109.052 142.982C115.289 146.058 119.723 151.781 121.05 158.462C121.05 158.507 121.073 158.562 121.084 158.606C121.118 158.749 121.152 158.893 121.186 159.036C121.3 159.543 121.424 160.039 121.583 160.524C121.629 160.69 121.697 160.844 121.753 161.009C121.912 161.473 122.082 161.936 122.275 162.388C122.343 162.531 122.411 162.685 122.468 162.829C122.672 163.292 122.899 163.733 123.137 164.174C123.205 164.306 123.273 164.428 123.352 164.549C123.613 165.001 123.885 165.442 124.18 165.883C124.248 165.982 124.316 166.092 124.384 166.192C124.702 166.644 125.042 167.085 125.405 167.515C125.462 167.581 125.518 167.658 125.575 167.724C125.983 168.198 126.403 168.65 126.857 169.091C126.879 169.114 126.891 169.125 126.913 169.147C127.855 170.062 128.887 170.889 129.975 171.616C130.123 171.716 130.27 171.793 130.418 171.892C130.803 172.135 131.2 172.377 131.608 172.598C131.835 172.719 132.062 172.829 132.3 172.951C132.64 173.116 132.981 173.281 133.332 173.436C133.593 173.546 133.865 173.656 134.137 173.755C134.478 173.888 134.818 174.009 135.158 174.119C135.441 174.207 135.725 174.296 136.009 174.384C136.371 174.483 136.734 174.571 137.097 174.66C137.369 174.726 137.653 174.792 137.936 174.836C138.356 174.913 138.776 174.968 139.195 175.023C139.433 175.056 139.672 175.09 139.91 175.112C140.579 175.178 141.259 175.211 141.94 175.211C153.666 175.211 163.215 165.938 163.215 154.526C163.215 153.854 163.169 153.192 163.113 152.542C163.113 152.464 163.101 152.398 163.09 152.321L163.056 152.299Z"/>
</mask>
<path d="M47.7558 62.8016C47.7558 71.8759 55.32 79.2302 64.6533 79.2302C73.9867 79.2302 81.5508 71.8759 81.5508 62.8016C81.5508 53.7273 73.9867 46.373 64.6533 46.373C55.32 46.373 47.7558 53.7273 47.7558 62.8016Z" stroke="url(#paint0_linear_27_2192)" stroke-width="2" mask="url(#path-1-inside-1_27_2192)"/>
<path d="M154.153 68.6343C161.914 68.6343 168.205 62.518 168.205 54.9732C168.205 47.4284 161.914 41.3121 154.153 41.3121C146.393 41.3121 140.102 47.4284 140.102 54.9732C140.102 62.518 146.393 68.6343 154.153 68.6343Z" stroke="url(#paint1_linear_27_2192)" stroke-width="2" mask="url(#path-1-inside-1_27_2192)"/>
<path d="M203.111 78.0945C198.087 76.8817 194.084 73.188 192.576 68.3697C191.067 63.5514 192.258 58.3141 195.74 54.5763C198.076 52.0624 199.357 48.8208 199.357 45.4358C199.357 37.9051 193.052 31.7747 185.306 31.7747C177.561 31.7747 171.255 37.9051 171.255 45.4358C171.255 51.2465 175.054 56.4397 180.725 58.3472C185.612 60.001 189.253 64.0255 190.319 68.9431C191.385 73.8716 189.706 78.9766 185.907 82.3947C182.04 85.8788 179.908 90.62 179.908 95.725C179.908 105.748 188.3 113.896 198.597 113.896C208.895 113.896 217.287 105.737 217.287 95.725C217.287 87.3563 211.458 80.1013 203.111 78.0835V78.0945Z" stroke="url(#paint2_linear_27_2192)" stroke-width="2" mask="url(#path-1-inside-1_27_2192)"/>
<path d="M163.85 31.9952C168.375 31.9952 172.038 28.4339 172.038 24.0345C172.038 19.6352 168.375 16.0738 163.85 16.0738C159.325 16.0738 155.662 19.6352 155.662 24.0345C155.662 28.4339 159.325 31.9952 163.85 31.9952Z" stroke="url(#paint3_linear_27_2192)" stroke-width="2" mask="url(#path-1-inside-1_27_2192)"/>
<path d="M55.354 41.0034C59.97 41.0034 63.7121 37.3652 63.7121 32.8773C63.7121 28.3894 59.97 24.7512 55.354 24.7512C50.738 24.7512 46.996 28.3894 46.996 32.8773C46.996 37.3652 50.738 41.0034 55.354 41.0034Z" stroke="url(#paint4_linear_27_2192)" stroke-width="2" mask="url(#path-1-inside-1_27_2192)"/>
<path d="M174.34 82.6813C178.955 82.6813 182.698 79.0428 182.698 74.5552C182.698 70.0677 178.955 66.4291 174.34 66.4291C169.724 66.4291 165.982 70.0677 165.982 74.5552C165.982 79.0428 169.724 82.6813 174.34 82.6813Z" stroke="url(#paint5_linear_27_2192)" stroke-width="2" mask="url(#path-1-inside-1_27_2192)"/>
<path d="M105.324 111.998C111.996 109.311 115.164 101.874 112.4 95.3875C109.637 88.9009 101.988 85.8205 95.316 88.5074C88.6441 91.1943 85.4759 98.6309 88.2394 105.118C91.003 111.604 98.6519 114.685 105.324 111.998Z" stroke="url(#paint6_linear_27_2192)" stroke-width="2" mask="url(#path-1-inside-1_27_2192)"/>
<path d="M170.166 106.31C169.735 106.31 169.305 106.332 168.874 106.376C168.635 106.398 168.397 106.409 168.159 106.409C165.982 106.409 163.929 105.395 162.636 103.664C161.207 101.734 160.958 99.2092 161.967 97.0481C162.772 95.328 163.181 93.4977 163.181 91.5903C163.181 84.3132 157.091 78.3812 149.595 78.3812C142.098 78.3812 136.008 84.3021 136.008 91.5903C136.008 98.8784 142.098 104.799 149.595 104.799C150.264 104.799 150.944 104.755 151.59 104.656C151.919 104.612 152.26 104.59 152.588 104.59C154.652 104.59 156.637 105.505 157.941 107.115C159.45 108.978 159.812 111.492 158.894 113.697C158.304 115.097 158.009 116.586 158.009 118.119C158.009 124.635 163.464 129.927 170.155 129.927C176.846 129.927 182.301 124.624 182.301 118.119C182.301 111.613 176.846 106.31 170.155 106.31H170.166Z" stroke="url(#paint7_linear_27_2192)" stroke-width="2" mask="url(#path-1-inside-1_27_2192)"/>
<path d="M163.056 152.299C162.557 147.536 160.436 143.247 156.966 139.917C156.932 139.884 156.909 139.862 156.875 139.829C156.512 139.476 156.127 139.145 155.73 138.814C155.571 138.682 155.424 138.55 155.265 138.428C154.891 138.142 154.505 137.855 154.108 137.59C153.825 137.392 153.53 137.216 153.235 137.028C153.144 136.973 153.053 136.907 152.963 136.852C129.987 123.08 121.617 94.9643 133.468 71.4129C133.514 71.3137 133.559 71.2255 133.604 71.1263C133.718 70.8837 133.831 70.6411 133.945 70.3986C133.945 70.3765 133.967 70.3545 133.979 70.3324C134.035 70.2001 134.092 70.0678 134.149 69.9355C134.194 69.8252 134.239 69.726 134.273 69.6157C134.682 68.5793 134.999 67.5208 135.226 66.4403C135.226 66.4292 135.226 66.4072 135.226 66.3962C135.464 65.2274 135.6 64.0256 135.623 62.7797C135.623 62.6253 135.634 62.4709 135.634 62.3276V62.3055C135.634 62.2835 135.634 62.2725 135.634 62.2504C135.634 61.5778 135.6 60.9273 135.532 60.2658C135.532 60.2327 135.532 60.1886 135.532 60.1555C135.464 59.516 135.362 58.8875 135.237 58.2701C135.226 58.2039 135.215 58.1267 135.192 58.0606C135.067 57.4652 134.908 56.8808 134.727 56.3075C134.704 56.2193 134.67 56.1421 134.648 56.0539C134.466 55.4915 134.251 54.9402 134.024 54.4C133.99 54.3118 133.945 54.2236 133.91 54.1354C133.672 53.5951 133.412 53.0769 133.128 52.5697C133.083 52.4925 133.037 52.4043 132.992 52.3271C132.697 51.8199 132.391 51.3127 132.062 50.8276C132.017 50.7614 131.971 50.6953 131.926 50.6291C131.574 50.1329 131.211 49.6588 130.826 49.1957C130.792 49.1516 130.746 49.1075 130.712 49.0634C130.304 48.5893 129.873 48.1262 129.42 47.6852C129.42 47.6852 129.397 47.6742 129.397 47.6632C128.943 47.2221 128.467 46.8031 127.979 46.4062C127.945 46.3731 127.911 46.3511 127.877 46.318C127.401 45.9321 126.902 45.5793 126.392 45.2374C126.335 45.1933 126.267 45.1492 126.21 45.1162C125.711 44.7854 125.19 44.4877 124.657 44.201C124.577 44.1569 124.498 44.1128 124.418 44.0687C123.897 43.7931 123.352 43.5395 122.797 43.3079C122.706 43.2748 122.615 43.2307 122.525 43.1977C121.969 42.9771 121.402 42.7676 120.823 42.5912C120.733 42.5582 120.642 42.5361 120.551 42.514C119.962 42.3376 119.36 42.1833 118.759 42.062C118.68 42.051 118.601 42.0289 118.521 42.0179C117.898 41.8966 117.262 41.7974 116.616 41.7312C116.559 41.7312 116.514 41.7312 116.457 41.7202C115.777 41.654 115.096 41.6209 114.393 41.6209C113.996 41.6209 113.611 41.621 113.225 41.654C113.18 41.654 112.896 41.654 112.851 41.654C108.961 41.654 105.446 38.3573 106.137 33.8367C106.262 33.0428 106.614 32.293 107.033 31.6094C107.113 31.4771 107.181 31.3448 107.26 31.2125C107.385 31.003 107.51 30.7825 107.634 30.573C107.77 30.3194 107.895 30.0658 108.02 29.8122C108.122 29.6137 108.224 29.4153 108.315 29.2168C108.462 28.8971 108.587 28.5663 108.712 28.2355C108.768 28.1032 108.825 27.9709 108.882 27.8275C109.755 25.4349 111.989 23.7259 114.563 23.4613C114.802 23.4392 115.051 23.4282 115.289 23.4282C117.637 23.4282 119.859 24.6411 121.096 26.5926C123.829 30.9258 128.558 33.5169 133.763 33.5169C141.94 33.5169 148.597 27.0447 148.597 19.095C148.597 11.1453 141.94 4.67314 133.763 4.67314C128.127 4.67314 123.035 7.72731 120.495 12.6559C119.338 14.9052 116.99 16.3055 114.393 16.3055C114.359 16.3055 114.314 16.3055 114.28 16.3055C111.672 16.2503 109.29 14.7288 108.224 12.4243C108.02 11.9833 107.793 11.5533 107.566 11.1343C107.555 11.1012 107.532 11.0682 107.521 11.0461C107.226 10.5279 106.908 10.0317 106.58 9.54659C106.478 9.39223 106.353 9.23786 106.251 9.0835C106.001 8.7417 105.74 8.39989 105.48 8.06912C105.355 7.91475 105.23 7.76039 105.094 7.60603C104.754 7.22012 104.402 6.83421 104.039 6.47036C103.903 6.33805 103.767 6.20574 103.631 6.08445C103.291 5.7647 102.951 5.467 102.599 5.1693C102.395 5.00391 102.191 4.83853 101.975 4.68416C101.714 4.4857 101.454 4.29826 101.181 4.11082C100.943 3.94543 100.716 3.78004 100.467 3.62568C100.172 3.43824 99.8546 3.26182 99.5484 3.08541C99.1402 2.85386 98.7206 2.63334 98.3009 2.43488C98.0401 2.31359 97.7793 2.18128 97.5184 2.07102C97.2236 1.93871 96.9287 1.82845 96.6339 1.70717C96.3504 1.59691 96.0555 1.49768 95.772 1.39844C95.4998 1.31024 95.2276 1.211 94.9441 1.1228C94.4111 0.968432 93.8668 0.836122 93.3224 0.714837C93.1069 0.670733 92.8801 0.637655 92.6647 0.593552C92.2337 0.51637 91.8141 0.450215 91.3832 0.406111C91.179 0.384059 90.9749 0.362008 90.7594 0.339956C90.1244 0.284826 89.4893 0.240723 88.8429 0.240723C88.1511 0.240723 87.4593 0.2738 86.7902 0.339956C86.7335 0.339956 86.6768 0.339956 86.6315 0.350982C85.985 0.417137 85.35 0.51637 84.7262 0.637655C84.6468 0.648681 84.5675 0.670733 84.4767 0.681759C83.8643 0.803044 83.2746 0.957407 82.6849 1.13382C82.5942 1.15587 82.5035 1.18895 82.4127 1.211C81.8344 1.38742 81.2673 1.59691 80.7116 1.81743C80.6209 1.8505 80.5302 1.89461 80.4395 1.92769C79.8838 2.15923 79.3508 2.41283 78.8178 2.68847C78.7384 2.73258 78.659 2.77668 78.5796 2.82078C78.0466 3.10746 77.5249 3.41618 77.0259 3.73594C76.9692 3.78004 76.9125 3.81312 76.8445 3.85722C76.3342 4.19902 75.8238 4.56288 75.3475 4.94878C75.3135 4.97084 75.2908 4.99289 75.2682 5.01494C74.7805 5.41187 74.3042 5.83086 73.8506 6.26087C73.8279 6.27189 73.8166 6.29395 73.7939 6.30497C73.3516 6.73498 72.9206 7.19807 72.5237 7.67218C72.4784 7.71629 72.433 7.77142 72.399 7.81552C72.0134 8.26758 71.6505 8.75272 71.3103 9.23786C71.2649 9.30402 71.2082 9.3812 71.1628 9.44736C70.834 9.9325 70.5164 10.4287 70.2329 10.9359C70.1876 11.0241 70.1422 11.1012 70.0968 11.1894C69.8133 11.6966 69.5525 12.2259 69.3143 12.7551C69.2803 12.8433 69.2349 12.9315 69.2009 13.0197C68.9741 13.56 68.7586 14.1113 68.5772 14.6847C68.5545 14.7618 68.5318 14.85 68.4978 14.9272C68.3164 15.5116 68.1576 16.096 68.0328 16.7024C68.0215 16.7686 68.0102 16.8237 67.9988 16.8898C67.8741 17.5183 67.7607 18.1578 67.6926 18.8083C67.6926 18.8304 67.6926 18.8414 67.6926 18.8635C67.6246 19.514 67.5906 20.1756 67.5906 20.8371C67.5906 20.8702 67.5906 20.9033 67.5906 20.9363C67.5906 20.9474 67.5906 20.9584 67.5906 20.9694C67.5906 21.6089 67.6246 22.2595 67.6926 22.91C67.6926 22.9761 67.6926 23.0423 67.7153 23.1195C67.7153 23.1967 67.7266 23.2849 67.738 23.3621C67.7947 23.8141 67.8854 24.2662 67.9648 24.7072C67.9875 24.8505 68.0102 25.0049 68.0442 25.1482C68.1803 25.7877 68.3504 26.4162 68.5432 27.0227C68.5432 27.0447 68.5432 27.0557 68.5545 27.0778C68.9401 28.2796 69.4391 29.4373 70.0401 30.5289C70.0855 30.6171 70.1309 30.7053 70.1762 30.7935C70.1762 30.8045 70.1876 30.8156 70.1989 30.8266C73 35.7993 77.8538 39.526 83.6489 40.9484C83.7623 40.9814 83.8757 41.0035 83.9891 41.0366C84.4654 41.1468 84.9417 41.235 85.418 41.3122C85.6562 41.3563 85.9057 41.3894 86.1438 41.4225C86.5294 41.4666 86.915 41.5107 87.3119 41.5327C87.6521 41.5548 88.0037 41.5768 88.3439 41.5879C88.514 41.5879 88.6841 41.6099 88.8656 41.6099C89.081 41.6099 89.2852 41.5879 89.4893 41.5879C89.6254 41.5879 89.7501 41.5879 89.8862 41.5879C89.9316 41.5879 89.9883 41.5879 90.0336 41.5879C90.079 41.5879 90.3625 41.5879 90.4079 41.5879C94.2977 41.5879 97.8133 44.8846 97.1215 49.4052C96.9968 50.1991 96.6452 50.9489 96.2256 51.6325C96.1122 51.8089 96.0215 51.9963 95.9081 52.1727C95.8174 52.3271 95.7266 52.4815 95.6472 52.6358C95.3637 53.143 95.1142 53.6612 94.8761 54.1905C94.8307 54.3007 94.7854 54.422 94.74 54.5323C94.5585 54.9733 94.3884 55.4254 94.2297 55.8774C94.173 56.0539 94.1049 56.2413 94.0482 56.4177C93.8895 56.9249 93.7534 57.4431 93.64 57.9724C93.64 58.0055 93.6173 58.0275 93.6173 58.0606C93.6173 58.0937 93.6059 58.1157 93.5946 58.1488C91.3151 68.5242 84.7376 77.5323 75.4042 83.0453C69.1329 86.75 61.9883 88.6685 54.7757 88.6685C51.2374 88.6685 47.6878 88.2054 44.2062 87.2792C43.435 87.0697 42.6412 86.9154 41.8247 86.7941C37.0162 85.6915 33.1831 82.1301 31.8449 77.4772C30.4614 72.6368 32.015 67.4546 35.8482 64.0917C40.305 60.1886 42.868 54.5874 42.868 48.7327C42.868 37.3319 33.3305 28.0481 21.593 28.0481C9.85546 28.0481 0.272644 37.3208 0.272644 48.7327C0.272644 58.6339 7.53064 67.179 17.5217 69.0424C22.591 69.9906 26.6736 73.6512 28.0572 78.4916C29.4407 83.3319 27.887 88.5141 24.0539 91.877C19.5971 95.7802 17.0341 101.381 17.0341 107.236C17.0341 118.637 26.5715 127.921 38.3091 127.921C38.3431 127.921 38.3658 127.921 38.3998 127.921C38.4338 127.921 38.4565 127.921 38.4905 127.921C39.8627 127.921 41.2009 127.766 42.5278 127.513C42.6185 127.491 42.6979 127.469 42.7886 127.458C43.333 127.347 43.8773 127.204 44.4103 127.05C44.6031 126.995 44.7846 126.928 44.9774 126.873C45.3856 126.741 45.7939 126.598 46.1908 126.443C46.4403 126.344 46.6785 126.256 46.9166 126.146C47.2568 126.002 47.5857 125.837 47.9146 125.671C48.1641 125.55 48.4249 125.429 48.6744 125.286C49.0486 125.076 49.4229 124.856 49.7858 124.624C49.9445 124.525 50.1147 124.425 50.2734 124.326C54.7757 121.36 58.1552 116.796 59.3119 111.481C61.58 101.073 68.1689 92.0204 77.5249 86.4964C83.7963 82.7917 90.9409 80.8732 98.1535 80.8732C100.751 80.8732 103.348 81.1268 105.922 81.6229C125.178 94.7107 132.901 118.383 125.269 139.685C122.797 140.556 120.188 141.008 117.557 141.008C115.164 141.008 112.749 140.634 110.424 139.884C103.778 137.745 98.5278 132.739 96.1916 126.333C94.2637 121.063 89.1151 117.512 83.3767 117.512C75.8919 117.512 69.7906 123.433 69.7906 130.721C69.7906 138.009 75.8805 143.93 83.3767 143.93C85.384 143.93 87.3232 143.511 89.115 142.695C92.177 141.295 95.4771 140.589 98.7773 140.589C102.304 140.589 105.82 141.383 109.052 142.982C115.289 146.058 119.723 151.781 121.05 158.462C121.05 158.507 121.073 158.562 121.084 158.606C121.118 158.749 121.152 158.893 121.186 159.036C121.3 159.543 121.424 160.039 121.583 160.524C121.629 160.69 121.697 160.844 121.753 161.009C121.912 161.473 122.082 161.936 122.275 162.388C122.343 162.531 122.411 162.685 122.468 162.829C122.672 163.292 122.899 163.733 123.137 164.174C123.205 164.306 123.273 164.428 123.352 164.549C123.613 165.001 123.885 165.442 124.18 165.883C124.248 165.982 124.316 166.092 124.384 166.192C124.702 166.644 125.042 167.085 125.405 167.515C125.462 167.581 125.518 167.658 125.575 167.724C125.983 168.198 126.403 168.65 126.857 169.091C126.879 169.114 126.891 169.125 126.913 169.147C127.855 170.062 128.887 170.889 129.975 171.616C130.123 171.716 130.27 171.793 130.418 171.892C130.803 172.135 131.2 172.377 131.608 172.598C131.835 172.719 132.062 172.829 132.3 172.951C132.64 173.116 132.981 173.281 133.332 173.436C133.593 173.546 133.865 173.656 134.137 173.755C134.478 173.888 134.818 174.009 135.158 174.119C135.441 174.207 135.725 174.296 136.009 174.384C136.371 174.483 136.734 174.571 137.097 174.66C137.369 174.726 137.653 174.792 137.936 174.836C138.356 174.913 138.776 174.968 139.195 175.023C139.433 175.056 139.672 175.09 139.91 175.112C140.579 175.178 141.259 175.211 141.94 175.211C153.666 175.211 163.215 165.938 163.215 154.526C163.215 153.854 163.169 153.192 163.113 152.542C163.113 152.464 163.101 152.398 163.09 152.321L163.056 152.299Z" stroke="url(#paint8_linear_27_2192)" stroke-width="2" mask="url(#path-1-inside-1_27_2192)"/>
</g>
<defs>
<linearGradient id="paint0_linear_27_2192" x1="0.272646" y1="51.6684" x2="134.686" y2="196.422" gradientUnits="userSpaceOnUse">
<stop stop-color="#DD09C4"/>
<stop offset="1" stop-color="#621CBA"/>
</linearGradient>
<linearGradient id="paint1_linear_27_2192" x1="0.272646" y1="51.6684" x2="134.686" y2="196.422" gradientUnits="userSpaceOnUse">
<stop stop-color="#DD09C4"/>
<stop offset="1" stop-color="#621CBA"/>
</linearGradient>
<linearGradient id="paint2_linear_27_2192" x1="0.272646" y1="51.6684" x2="134.686" y2="196.422" gradientUnits="userSpaceOnUse">
<stop stop-color="#DD09C4"/>
<stop offset="1" stop-color="#621CBA"/>
</linearGradient>
<linearGradient id="paint3_linear_27_2192" x1="0.272646" y1="51.6684" x2="134.686" y2="196.422" gradientUnits="userSpaceOnUse">
<stop stop-color="#DD09C4"/>
<stop offset="1" stop-color="#621CBA"/>
</linearGradient>
<linearGradient id="paint4_linear_27_2192" x1="0.272646" y1="51.6684" x2="134.686" y2="196.422" gradientUnits="userSpaceOnUse">
<stop stop-color="#DD09C4"/>
<stop offset="1" stop-color="#621CBA"/>
</linearGradient>
<linearGradient id="paint5_linear_27_2192" x1="0.272646" y1="51.6684" x2="134.686" y2="196.422" gradientUnits="userSpaceOnUse">
<stop stop-color="#DD09C4"/>
<stop offset="1" stop-color="#621CBA"/>
</linearGradient>
<linearGradient id="paint6_linear_27_2192" x1="0.272646" y1="51.6684" x2="134.686" y2="196.422" gradientUnits="userSpaceOnUse">
<stop stop-color="#DD09C4"/>
<stop offset="1" stop-color="#621CBA"/>
</linearGradient>
<linearGradient id="paint7_linear_27_2192" x1="0.272646" y1="51.6684" x2="134.686" y2="196.422" gradientUnits="userSpaceOnUse">
<stop stop-color="#DD09C4"/>
<stop offset="1" stop-color="#621CBA"/>
</linearGradient>
<linearGradient id="paint8_linear_27_2192" x1="0.272646" y1="51.6684" x2="134.686" y2="196.422" gradientUnits="userSpaceOnUse">
<stop stop-color="#DD09C4"/>
<stop offset="1" stop-color="#621CBA"/>
</linearGradient>
</defs>
</svg>
