<svg width="164" height="103" viewBox="0 0 164 103" fill="none" xmlns="http://www.w3.org/2000/svg">
<path d="M43.5516 45.3531C43.5516 53.9245 50.4909 60.8712 59.0533 60.8712C67.6157 60.8712 74.5551 53.9245 74.5551 45.3531C74.5551 36.7816 67.6157 29.8349 59.0533 29.8349C50.4909 29.8349 43.5516 36.7816 43.5516 45.3531Z" fill="url(#paint0_linear_1_115)"/>
<path d="M141.161 50.8625C148.28 50.8625 154.051 45.0852 154.051 37.9585C154.051 30.8318 148.28 25.0545 141.161 25.0545C134.042 25.0545 128.27 30.8318 128.27 37.9585C128.27 45.0852 134.042 50.8625 141.161 50.8625Z" fill="url(#paint1_linear_1_115)"/>
<path d="M186.074 59.7985C181.465 58.6528 177.793 55.1639 176.409 50.6126C175.025 46.0613 176.118 41.1142 179.312 37.5836C181.455 35.209 182.631 32.147 182.631 28.9497C182.631 21.8363 176.846 16.0457 169.74 16.0457C162.634 16.0457 156.85 21.8363 156.85 28.9497C156.85 34.4383 160.335 39.3437 165.537 41.1455C170.021 42.7077 173.361 46.5091 174.339 51.1541C175.317 55.8096 173.777 60.6316 170.292 63.8603C166.744 67.1513 164.788 71.6297 164.788 76.4518C164.788 85.9189 172.487 93.6155 181.934 93.6155C191.38 93.6155 199.079 85.9085 199.079 76.4518C199.079 68.5469 193.732 61.694 186.074 59.788V59.7985Z" fill="url(#paint2_linear_1_115)"/>
<path d="M150.056 16.254C154.207 16.254 157.568 12.89 157.568 8.73444C157.568 4.57891 154.207 1.21492 150.056 1.21492C145.905 1.21492 142.545 4.57891 142.545 8.73444C142.545 12.89 145.905 16.254 150.056 16.254Z" fill="url(#paint3_linear_1_115)"/>
<path d="M50.5222 24.7629C54.7569 24.7629 58.1898 21.3263 58.1898 17.0872C58.1898 12.848 54.7569 9.41141 50.5222 9.41141C46.2874 9.41141 42.8545 12.848 42.8545 17.0872C42.8545 21.3263 46.2874 24.7629 50.5222 24.7629Z" fill="url(#paint4_linear_1_115)"/>
<path d="M159.68 64.131C163.914 64.131 167.347 60.6941 167.347 56.4553C167.347 52.2164 163.914 48.7795 159.68 48.7795C155.445 48.7795 152.012 52.2164 152.012 56.4553C152.012 60.6941 155.445 64.131 159.68 64.131Z" fill="url(#paint5_linear_1_115)"/>
<path d="M96.3643 91.8227C102.485 89.2848 105.392 82.2603 102.856 76.1331C100.321 70.0059 93.304 67.0963 87.1833 69.6342C81.0625 72.1722 78.1559 79.1967 80.6912 85.3238C83.2265 91.451 90.2436 94.3607 96.3643 91.8227Z" fill="url(#paint6_linear_1_115)"/>
<path d="M155.851 86.4501C155.456 86.4501 155.06 86.4709 154.665 86.5126C154.447 86.5334 154.228 86.5438 154.01 86.5438C152.012 86.5438 150.129 85.5856 148.943 83.9505C147.632 82.1279 147.403 79.7429 148.329 77.7016C149.068 76.0769 149.442 74.348 149.442 72.5462C149.442 65.6724 143.855 60.0692 136.978 60.0692C130.101 60.0692 124.515 65.662 124.515 72.5462C124.515 79.4305 130.101 85.0232 136.978 85.0232C137.592 85.0232 138.217 84.9816 138.81 84.8878C139.111 84.8462 139.423 84.8254 139.725 84.8254C141.619 84.8254 143.439 85.6898 144.636 87.2104C146.019 88.9705 146.352 91.345 145.51 93.428C144.969 94.7507 144.698 96.1567 144.698 97.6044C144.698 103.76 149.702 108.759 155.841 108.759C161.979 108.759 166.983 103.749 166.983 97.6044C166.983 91.4596 161.979 86.4501 155.841 86.4501H155.851Z" fill="url(#paint7_linear_1_115)"/>
<path d="M149.328 129.891C148.87 125.391 146.925 121.34 143.741 118.195C143.71 118.163 143.689 118.143 143.658 118.111C143.325 117.778 142.971 117.466 142.607 117.153C142.461 117.028 142.326 116.903 142.18 116.789C141.837 116.518 141.483 116.247 141.119 115.997C140.859 115.81 140.589 115.643 140.318 115.466C140.235 115.414 140.152 115.351 140.068 115.299C118.99 102.291 111.312 75.7333 122.184 53.4871C122.226 53.3934 122.267 53.3101 122.309 53.2164C122.413 52.9872 122.517 52.7581 122.621 52.529C122.621 52.5082 122.642 52.4873 122.652 52.4665C122.704 52.3415 122.756 52.2165 122.808 52.0916C122.85 51.9874 122.892 51.8937 122.923 51.7895C123.297 50.8105 123.589 49.8107 123.797 48.7901C123.797 48.7796 123.797 48.7588 123.797 48.7484C124.015 47.6444 124.14 46.5092 124.161 45.3323C124.161 45.1865 124.171 45.0407 124.171 44.9053V44.8845C124.171 44.8637 124.171 44.8532 124.171 44.8324C124.171 44.1971 124.14 43.5826 124.078 42.9577C124.078 42.9265 124.078 42.8848 124.078 42.8536C124.015 42.2495 123.922 41.6559 123.807 41.0727C123.797 41.0102 123.786 40.9373 123.766 40.8748C123.651 40.3124 123.505 39.7604 123.339 39.2188C123.318 39.1355 123.287 39.0626 123.266 38.9793C123.1 38.4481 122.902 37.9274 122.694 37.417C122.663 37.3337 122.621 37.2504 122.59 37.1671C122.371 36.6567 122.132 36.1673 121.872 35.6882C121.83 35.6153 121.789 35.5319 121.747 35.459C121.477 34.98 121.196 34.5009 120.894 34.0426C120.852 33.9801 120.811 33.9176 120.769 33.8552C120.447 33.3865 120.114 32.9386 119.76 32.5012C119.729 32.4596 119.687 32.4179 119.656 32.3762C119.281 31.9284 118.886 31.491 118.47 31.0744C118.47 31.0744 118.449 31.064 118.449 31.0536C118.033 30.637 117.596 30.2412 117.149 29.8663C117.117 29.835 117.086 29.8142 117.055 29.7829C116.618 29.4184 116.16 29.0852 115.692 28.7623C115.64 28.7206 115.578 28.679 115.526 28.6477C115.068 28.3353 114.589 28.0541 114.1 27.7833C114.027 27.7416 113.955 27.7 113.882 27.6583C113.403 27.3979 112.904 27.1584 112.394 26.9397C112.311 26.9084 112.228 26.8668 112.144 26.8355C111.635 26.6272 111.114 26.4294 110.584 26.2627C110.501 26.2315 110.417 26.2107 110.334 26.1898C109.793 26.0232 109.242 25.8774 108.69 25.7628C108.617 25.7524 108.545 25.7316 108.472 25.7212C107.9 25.6066 107.317 25.5129 106.724 25.4504C106.672 25.4504 106.63 25.4504 106.578 25.4399C105.954 25.3775 105.33 25.3462 104.685 25.3462C104.321 25.3462 103.967 25.3462 103.613 25.3775C103.572 25.3775 103.311 25.3775 103.27 25.3775C99.7013 25.3775 96.4761 22.2634 97.1108 17.9933C97.2252 17.2435 97.5477 16.5353 97.9327 15.8895C98.0055 15.7646 98.0679 15.6396 98.1408 15.5146C98.2552 15.3167 98.3696 15.1084 98.4841 14.9105C98.6089 14.671 98.7234 14.4315 98.8378 14.1919C98.9314 14.0044 99.0251 13.817 99.1083 13.6295C99.2436 13.3275 99.358 13.015 99.4725 12.7026C99.5245 12.5776 99.5765 12.4526 99.6285 12.3172C100.43 10.0572 102.479 8.44291 104.841 8.19296C105.059 8.17213 105.288 8.16171 105.507 8.16171C107.66 8.16171 109.699 9.30734 110.834 11.1508C113.341 15.2438 117.679 17.6913 122.455 17.6913C129.956 17.6913 136.063 11.5778 136.063 4.06868C136.063 -3.44043 129.956 -9.55395 122.455 -9.55395C117.284 -9.55395 112.613 -6.66904 110.282 -2.0136C109.221 0.111032 107.067 1.43372 104.685 1.43372C104.654 1.43372 104.612 1.43372 104.581 1.43372C102.188 1.38164 100.003 -0.0556059 99.0251 -2.23231C98.8378 -2.6489 98.6297 -3.05508 98.4217 -3.45085C98.4113 -3.48209 98.3904 -3.51334 98.38 -3.53417C98.1095 -4.02367 97.8182 -4.49233 97.5165 -4.95059C97.4229 -5.09639 97.3084 -5.2422 97.2148 -5.38801C96.9859 -5.71087 96.7466 -6.03373 96.5073 -6.34618C96.3929 -6.49199 96.2785 -6.63779 96.1536 -6.7836C95.8415 -7.14812 95.519 -7.51264 95.1861 -7.85633C95.0612 -7.98131 94.9364 -8.10629 94.8115 -8.22085C94.4994 -8.52288 94.1873 -8.80408 93.8648 -9.08528C93.6775 -9.24151 93.4902 -9.39773 93.2925 -9.54354C93.0533 -9.731 92.814 -9.90806 92.5643 -10.0851C92.3458 -10.2413 92.1377 -10.3976 91.9088 -10.5434C91.6383 -10.7204 91.347 -10.8871 91.0661 -11.0537C90.6916 -11.2724 90.3066 -11.4807 89.9217 -11.6682C89.6824 -11.7827 89.4431 -11.9077 89.2038 -12.0119C88.9333 -12.1368 88.6628 -12.241 88.3923 -12.3555C88.1322 -12.4597 87.8617 -12.5534 87.6016 -12.6472C87.3519 -12.7305 87.1022 -12.8242 86.8421 -12.9075C86.3532 -13.0533 85.8538 -13.1783 85.3544 -13.2929C85.1567 -13.3345 84.9486 -13.3658 84.751 -13.4074C84.3556 -13.4804 83.9707 -13.5428 83.5753 -13.5845C83.388 -13.6053 83.2008 -13.6262 83.0031 -13.647C82.4205 -13.6991 81.8379 -13.7407 81.2448 -13.7407C80.6102 -13.7407 79.9756 -13.7095 79.3617 -13.647C79.3097 -13.647 79.2577 -13.647 79.2161 -13.6366C78.6231 -13.5741 78.0404 -13.4804 77.4682 -13.3658C77.3954 -13.3554 77.3226 -13.3345 77.2393 -13.3241C76.6775 -13.2096 76.1365 -13.0638 75.5955 -12.8971C75.5123 -12.8763 75.4291 -12.845 75.3458 -12.8242C74.8152 -12.6576 74.295 -12.4597 73.7853 -12.2514C73.702 -12.2202 73.6188 -12.1785 73.5356 -12.1473C73.0258 -11.9285 72.5368 -11.689 72.0478 -11.4286C71.975 -11.387 71.9022 -11.3453 71.8293 -11.3036C71.3403 -11.0329 70.8618 -10.7412 70.404 -10.4392C70.352 -10.3976 70.2999 -10.3663 70.2375 -10.3247C69.7693 -10.0018 69.3012 -9.6581 68.8642 -9.29358C68.833 -9.27275 68.8122 -9.25192 68.7914 -9.23109C68.344 -8.85616 67.9071 -8.46039 67.4909 -8.05421C67.4701 -8.0438 67.4597 -8.02297 67.4389 -8.01255C67.0331 -7.60637 66.6378 -7.16895 66.2736 -6.72111C66.232 -6.67945 66.1904 -6.62738 66.1592 -6.58572C65.8055 -6.15871 65.4725 -5.70046 65.1604 -5.2422C65.1188 -5.17971 65.0668 -5.10681 65.0252 -5.04432C64.7235 -4.58607 64.4322 -4.1174 64.1721 -3.63831C64.1304 -3.555 64.0888 -3.48209 64.0472 -3.39877C63.7871 -2.91969 63.5478 -2.41978 63.3293 -1.91986C63.2981 -1.83655 63.2565 -1.75323 63.2253 -1.66991C63.0172 -1.15958 62.8196 -0.638838 62.6531 -0.0972662C62.6323 -0.0243616 62.6115 0.0589581 62.5803 0.131863C62.4138 0.683849 62.2682 1.23584 62.1537 1.80865C62.1433 1.87114 62.1329 1.92322 62.1225 1.98571C62.0081 2.57935 61.904 3.18341 61.8416 3.79789C61.8416 3.81872 61.8416 3.82914 61.8416 3.84997C61.7792 4.46444 61.748 5.08933 61.748 5.71422C61.748 5.74547 61.748 5.77671 61.748 5.80796C61.748 5.81837 61.748 5.82879 61.748 5.8392C61.748 6.44326 61.7792 7.05774 61.8416 7.67222C61.8416 7.7347 61.8416 7.79719 61.8624 7.8701C61.8624 7.943 61.8728 8.02632 61.8832 8.09923C61.9352 8.52623 62.0185 8.95324 62.0913 9.36984C62.1121 9.50523 62.1329 9.65104 62.1641 9.78643C62.289 10.3905 62.445 10.9841 62.6219 11.557C62.6219 11.5778 62.6219 11.5882 62.6323 11.609C62.986 12.7442 63.4438 13.8378 63.9952 14.8689C64.0368 14.9522 64.0784 15.0355 64.12 15.1188C64.12 15.1293 64.1304 15.1397 64.1408 15.1501C66.7106 19.8472 71.1635 23.3674 76.4799 24.7109C76.5839 24.7422 76.6879 24.763 76.792 24.7942C77.2289 24.8984 77.6659 24.9817 78.1029 25.0546C78.3214 25.0963 78.5502 25.1275 78.7687 25.1588C79.1225 25.2004 79.4762 25.2421 79.8403 25.2629C80.1524 25.2837 80.475 25.3046 80.7871 25.315C80.9431 25.315 81.0992 25.3358 81.2656 25.3358C81.4633 25.3358 81.6506 25.315 81.8379 25.315C81.9627 25.315 82.0771 25.315 82.202 25.315C82.2436 25.315 82.2956 25.315 82.3372 25.315C82.3789 25.315 82.639 25.315 82.6806 25.315C86.2491 25.315 89.4743 28.429 88.8397 32.6991C88.7252 33.449 88.4027 34.1572 88.0178 34.8029C87.9137 34.9695 87.8305 35.1466 87.7265 35.3132C87.6432 35.459 87.56 35.6049 87.4872 35.7507C87.2271 36.2297 86.9982 36.7192 86.7797 37.2192C86.7381 37.3233 86.6965 37.4379 86.6549 37.542C86.4884 37.9586 86.3323 38.3856 86.1867 38.8126C86.1347 38.9793 86.0723 39.1563 86.0202 39.323C85.8746 39.802 85.7497 40.2915 85.6457 40.7915C85.6457 40.8227 85.6249 40.8435 85.6249 40.8748C85.6249 40.906 85.6145 40.9268 85.6041 40.9581C83.5129 50.7585 77.4786 59.2674 68.9162 64.4748C63.1629 67.9742 56.6084 69.7864 49.9916 69.7864C46.7455 69.7864 43.4891 69.349 40.2951 68.4741C39.5877 68.2762 38.8594 68.1304 38.1103 68.0159C33.6991 66.9744 30.1826 63.6104 28.9549 59.2153C27.6856 54.6432 29.111 49.7482 32.6275 46.5717C36.7162 42.8848 39.0675 37.5941 39.0675 32.0638C39.0675 21.2948 30.3178 12.5255 19.5498 12.5255C8.78176 12.5255 -0.00952148 21.2844 -0.00952148 32.0638C-0.00952148 41.4163 6.64897 49.4878 15.8148 51.248C20.4653 52.1436 24.2107 55.6014 25.48 60.1735C26.7493 64.7456 25.3239 69.6406 21.8074 72.8171C17.7187 76.504 15.3674 81.7947 15.3674 87.325C15.3674 98.094 24.1171 106.863 34.8851 106.863C34.9163 106.863 34.9371 106.863 34.9683 106.863C34.9996 106.863 35.0204 106.863 35.0516 106.863C36.3105 106.863 37.5381 106.717 38.7554 106.478C38.8386 106.457 38.9114 106.436 38.9947 106.426C39.494 106.322 39.9934 106.186 40.4824 106.04C40.6593 105.988 40.8257 105.926 41.0026 105.874C41.3771 105.749 41.7517 105.613 42.1158 105.468C42.3447 105.374 42.5632 105.291 42.7817 105.186C43.0938 105.051 43.3955 104.895 43.6972 104.739C43.9261 104.624 44.1654 104.51 44.3943 104.374C44.7376 104.176 45.0809 103.968 45.4138 103.749C45.5595 103.655 45.7156 103.562 45.8612 103.468C49.9916 100.666 53.0919 96.3547 54.1531 91.3347C56.2339 81.5031 62.2786 72.9525 70.8618 67.7347C76.6151 64.2353 83.1696 62.4231 89.7864 62.4231C92.1689 62.4231 94.5514 62.6626 96.9131 63.1313C114.579 75.4937 121.664 97.8544 114.662 117.976C112.394 118.799 110.001 119.226 107.587 119.226C105.392 119.226 103.176 118.872 101.043 118.163C94.9468 116.143 90.1298 111.415 87.9866 105.364C86.2179 100.385 81.4945 97.0316 76.2302 97.0316C69.3636 97.0316 63.7663 102.624 63.7663 109.509C63.7663 116.393 69.3532 121.986 76.2302 121.986C78.0717 121.986 79.8507 121.59 81.4945 120.819C84.3036 119.496 87.3311 118.83 90.3587 118.83C93.5943 118.83 96.8195 119.58 99.7846 121.09C105.507 123.996 109.575 129.401 110.792 135.712C110.792 135.754 110.813 135.806 110.823 135.848C110.854 135.983 110.886 136.119 110.917 136.254C111.021 136.733 111.135 137.202 111.281 137.66C111.322 137.816 111.385 137.962 111.437 138.118C111.583 138.556 111.739 138.993 111.916 139.42C111.978 139.555 112.04 139.701 112.092 139.837C112.28 140.274 112.488 140.691 112.706 141.107C112.769 141.232 112.831 141.347 112.904 141.461C113.143 141.888 113.393 142.305 113.663 142.722C113.726 142.815 113.788 142.919 113.851 143.013C114.142 143.44 114.454 143.857 114.787 144.263C114.839 144.326 114.891 144.398 114.943 144.461C115.318 144.909 115.703 145.336 116.119 145.752C116.139 145.773 116.15 145.784 116.171 145.804C117.034 146.669 117.981 147.45 118.98 148.137C119.115 148.231 119.25 148.304 119.385 148.398C119.739 148.627 120.103 148.856 120.478 149.064C120.686 149.179 120.894 149.283 121.113 149.398C121.425 149.554 121.737 149.71 122.059 149.856C122.299 149.96 122.548 150.064 122.798 150.158C123.11 150.283 123.422 150.397 123.734 150.501C123.994 150.585 124.255 150.668 124.515 150.751C124.848 150.845 125.18 150.929 125.513 151.012C125.763 151.074 126.023 151.137 126.283 151.178C126.668 151.251 127.053 151.303 127.438 151.356C127.657 151.387 127.875 151.418 128.094 151.439C128.707 151.501 129.332 151.533 129.956 151.533C140.713 151.533 149.474 142.774 149.474 131.994C149.474 131.359 149.432 130.734 149.38 130.12C149.38 130.047 149.37 129.984 149.359 129.911L149.328 129.891Z" fill="url(#paint8_linear_1_115)"/>
<defs>
<linearGradient id="paint0_linear_1_115" x1="59.0199" y1="12.496" x2="170.987" y2="134.561" gradientUnits="userSpaceOnUse">
<stop stop-color="#D30BC3"/>
<stop offset="1" stop-color="#6C058A"/>
</linearGradient>
<linearGradient id="paint1_linear_1_115" x1="59.0199" y1="12.496" x2="170.987" y2="134.561" gradientUnits="userSpaceOnUse">
<stop stop-color="#D30BC3"/>
<stop offset="1" stop-color="#6C058A"/>
</linearGradient>
<linearGradient id="paint2_linear_1_115" x1="59.0199" y1="12.496" x2="170.987" y2="134.561" gradientUnits="userSpaceOnUse">
<stop stop-color="#D30BC3"/>
<stop offset="1" stop-color="#6C058A"/>
</linearGradient>
<linearGradient id="paint3_linear_1_115" x1="59.0199" y1="12.496" x2="170.987" y2="134.561" gradientUnits="userSpaceOnUse">
<stop stop-color="#D30BC3"/>
<stop offset="1" stop-color="#6C058A"/>
</linearGradient>
<linearGradient id="paint4_linear_1_115" x1="59.0199" y1="12.496" x2="170.987" y2="134.561" gradientUnits="userSpaceOnUse">
<stop stop-color="#D30BC3"/>
<stop offset="1" stop-color="#6C058A"/>
</linearGradient>
<linearGradient id="paint5_linear_1_115" x1="59.0199" y1="12.496" x2="170.987" y2="134.561" gradientUnits="userSpaceOnUse">
<stop stop-color="#D30BC3"/>
<stop offset="1" stop-color="#6C058A"/>
</linearGradient>
<linearGradient id="paint6_linear_1_115" x1="59.0199" y1="12.496" x2="170.987" y2="134.561" gradientUnits="userSpaceOnUse">
<stop stop-color="#D30BC3"/>
<stop offset="1" stop-color="#6C058A"/>
</linearGradient>
<linearGradient id="paint7_linear_1_115" x1="59.0199" y1="12.496" x2="170.987" y2="134.561" gradientUnits="userSpaceOnUse">
<stop stop-color="#D30BC3"/>
<stop offset="1" stop-color="#6C058A"/>
</linearGradient>
<linearGradient id="paint8_linear_1_115" x1="59.0199" y1="12.496" x2="170.987" y2="134.561" gradientUnits="userSpaceOnUse">
<stop stop-color="#D30BC3"/>
<stop offset="1" stop-color="#6C058A"/>
</linearGradient>
</defs>
</svg>
